<svg width="81" height="57" viewBox="0 0 81 57" fill="none" xmlns="http://www.w3.org/2000/svg">
<path fill-rule="evenodd" clip-rule="evenodd" d="M40.8812 1.12772C34.6294 -1.44255 27.4307 0.486331 23.3015 5.83819L13.4926 18.5517C13.5216 18.5499 13.5498 18.5489 13.5772 18.5489C14.0112 18.5489 14.3367 18.5977 14.5538 18.6951C14.7708 18.7925 14.9758 18.963 15.1687 19.2066C15.3857 19.4989 15.5786 19.8277 15.7474 20.1931C15.9403 20.5341 16.4105 21.5449 17.1581 23.2255C17.9056 24.8818 18.7014 26.6477 19.5454 28.5232C20.4135 30.3987 21.2213 32.1768 21.9688 33.8575C22.7405 35.5138 23.1745 36.4393 23.271 36.6342L30.5052 20.6315C30.6981 20.1687 30.8669 19.8033 31.0116 19.5354C31.4456 18.8778 31.9761 18.5489 32.6031 18.5489C33.23 18.5489 33.9414 18.756 34.7372 19.1701C36.1599 19.8764 36.8713 20.6559 36.8713 21.5084C36.8713 21.8981 36.6904 22.4826 36.3287 23.2621L26.3455 43.7222C26.0803 44.258 25.6703 44.6964 25.1157 45.0374C24.5852 45.3541 24.0306 45.5124 23.4518 45.5124H23.0901C22.4873 45.5124 21.9085 45.3541 21.3539 45.0374C20.8234 44.6964 20.4255 44.258 20.1603 43.7222L10.1771 23.2621C10.1355 23.1726 10.0964 23.0856 10.0596 23.0012L3.18595 31.9103C-5.58095 43.2732 5.08159 59.2766 18.9444 55.562L59.5862 44.6721C59.5766 44.66 59.5672 44.6479 59.5578 44.6356C54.1322 37.3284 50.5633 32.5544 48.8512 30.3135V42.3338C48.8512 42.9184 48.8271 43.3446 48.7789 43.6125C48.7547 43.8805 48.6462 44.1971 48.4533 44.5625C48.1157 45.2201 47.1753 45.5489 45.632 45.5489C44.1369 45.5489 43.2206 45.2201 42.883 44.5625C42.6901 44.1971 42.5695 43.8683 42.5213 43.576C42.4972 43.2837 42.4851 42.8575 42.4851 42.2973V21.9102C42.4851 20.9847 42.5936 20.3148 42.8106 19.9008C43.0518 19.4623 43.4014 19.1701 43.8596 19.0239C44.3178 18.8778 44.9086 18.8047 45.632 18.8047C46.3554 18.8047 46.9221 18.8778 47.332 19.0239C47.7661 19.1457 48.0675 19.2918 48.2363 19.4623C48.3327 19.5354 48.6101 19.8521 49.0682 20.4123C54.1563 27.4028 57.5563 32.0185 59.2684 34.2594V21.9102C59.2684 20.9847 59.3769 20.3148 59.594 19.9008C59.8351 19.4623 60.1848 19.1701 60.6429 19.0239C61.1011 18.8778 61.6678 18.8047 62.343 18.8047C63.0423 18.8047 63.5969 18.8656 64.0068 18.9874C64.4409 19.1092 64.7544 19.2553 64.9473 19.4258C65.1643 19.5963 65.321 19.8521 65.4175 20.1931C65.5622 20.5828 65.6345 21.2039 65.6345 22.0564V42.3338C65.6345 42.6097 65.6291 42.8504 65.6184 43.0558L69.5166 42.0112C83.3794 38.2967 84.6117 19.1062 71.3379 13.649L40.8812 1.12772Z" fill="black"/>
</svg>
